<!--?xml version="1.0" encoding="UTF-8" standalone="no"?-->
<!-- Created with Inkscape (http://www.inkscape.org/) -->

<svg xmlns:dc="http://purl.org/dc/elements/1.1/" xmlns:cc="http://creativecommons.org/ns#" xmlns:rdf="http://www.w3.org/1999/02/22-rdf-syntax-ns#" xmlns:svg="http://www.w3.org/2000/svg" xmlns="http://www.w3.org/2000/svg" xmlns:sodipodi="http://sodipodi.sourceforge.net/DTD/sodipodi-0.dtd" xmlns:inkscape="http://www.inkscape.org/namespaces/inkscape" version="1.1" id="svg66687" xml:space="preserve" width="800" height="800" viewBox="0 0 800 800" sodipodi:docname="man-outline-color-pdv.svg" inkscape:version="0.92.4 (5da689c313, 2019-01-14)"><metadata id="metadata66693"><rdf:rdf><cc:work rdf:about=""><dc:format>image/svg+xml</dc:format><dc:type rdf:resource="http://purl.org/dc/dcmitype/StillImage"></dc:type><dc:title></dc:title></cc:work></rdf:rdf></metadata><defs id="defs66691"><clipPath clipPathUnits="userSpaceOnUse" id="clipPath66703"><path d="M 0,600 H 600 V 0 H 0 Z" id="path66701" inkscape:connector-curvature="0"></path></clipPath></defs><sodipodi:namedview pagecolor="#ffffff" bordercolor="#666666" borderopacity="1" objecttolerance="10" gridtolerance="10" guidetolerance="10" inkscape:pageopacity="0" inkscape:pageshadow="2" inkscape:window-width="1920" inkscape:window-height="1018" id="namedview66689" showgrid="false" inkscape:zoom="1.0013867" inkscape:cx="400" inkscape:cy="400" inkscape:window-x="-8" inkscape:window-y="-8" inkscape:window-maximized="1" inkscape:current-layer="g66695"></sodipodi:namedview><g id="g66695" inkscape:groupmode="layer" inkscape:label="man-outline-color-pdv" transform="matrix(1.3333333,0,0,-1.3333333,0,800)"><g id="g66697"><g id="g66699" clip-path="url(#clipPath66703)"><path d="m 274.358,14.096 -1.83,-10.098 52.583,-2.531 c 6.676,0.9 7.931,2.758 4.952,6.475 l -55.061,10.161 c -0.175,-1.272 -0.389,-2.601 -0.644,-4.007" style="fill:#0054bd;fill-opacity:1;fill-rule:nonzero;stroke:none" id="path66705" inkscape:connector-curvature="0"></path><path d="m 211.893,13.612 c -0.436,-2.308 -0.645,-4.698 -0.634,-6.663 l 29.792,-1.434 0.534,9.357 c 0.109,1.914 0.325,3.903 0.619,5.845 l -29.906,-2.032 c 0.056,-1.67 -0.08,-3.334 -0.405,-5.073" style="fill:#0054bd;fill-opacity:1;fill-rule:nonzero;stroke:none" id="path66707" inkscape:connector-curvature="0"></path><path d="m 211.895,2.937 c 0.855,-1.406 7.639,-2.177 15.246,-1.79 l 13.702,0.724 0.208,3.644 -29.792,1.434 c 0.011,-1.869 0.223,-3.353 0.636,-4.012" style="fill:#0051c6;fill-opacity:1;fill-rule:nonzero;stroke:none" id="path66709" inkscape:connector-curvature="0"></path><path d="m 271.924,0.66 h 29.843 c 10.901,0 18.529,0.155 23.344,0.807 l -52.583,2.531 z" style="fill:#0051c6;fill-opacity:1;fill-rule:nonzero;stroke:none" id="path66711" inkscape:connector-curvature="0"></path><path d="m 338.987,446.258 c -1.677,20.171 -2.023,21.08 -11.212,29.762 -8.365,7.907 -16.22,13.008 -23.037,15.02 l 34.688,-49.479 c -0.16,1.552 -0.307,3.118 -0.439,4.697" style="fill:#af001f;fill-opacity:1;fill-rule:nonzero;stroke:none" id="path66713" inkscape:connector-curvature="0"></path><path d="m 358.308,383.742 c -0.268,2.05 -0.919,3.281 -1.95,3.976 -7.212,4.859 -14.178,27.271 -16.932,53.843 l -34.688,49.479 c -1.447,0.427 -2.848,0.714 -4.198,0.859 l -42.561,-87.502 z" style="fill:#b40e00;fill-opacity:1;fill-rule:nonzero;stroke:none" id="path66715" inkscape:connector-curvature="0"></path><path d="m 334.926,304.071 c 4.377,3.226 6.365,7.275 6.365,12.751 0,1.959 2.2,6.51 4.888,10.139 2.687,3.632 5.361,9.852 5.936,13.821 0.579,3.968 2.294,13.75 3.811,21.74 0.043,0.231 0.085,0.453 0.128,0.68 l -76.52,-42.56 z" style="fill:#ab73a3;fill-opacity:1;fill-rule:nonzero;stroke:none" id="path66717" inkscape:connector-curvature="0"></path><path d="m 327.633,210.104 c -0.335,3.566 -0.671,6.607 -0.989,8.858 -0.76,5.355 -1.434,15.264 -1.854,26.083 l -58.805,-40.492 z" style="fill:#003ccc;fill-opacity:1;fill-rule:nonzero;stroke:none" id="path66719" inkscape:connector-curvature="0"></path><path d="m 267.194,131.391 c 0.431,-0.431 0.816,-1.635 1.151,-3.572 l 49.049,-18.882 c 1.203,13.872 3.908,22.204 8.328,26.351 5.249,4.936 5.415,6.363 4.341,36.306 -0.039,1.009 -0.078,2.034 -0.12,3.069 l -69.311,-41.86 c 3.103,0.339 5.288,-0.129 6.562,-1.412" style="fill:#0056c8;fill-opacity:1;fill-rule:nonzero;stroke:none" id="path66721" inkscape:connector-curvature="0"></path><path d="m 265.985,204.553 -7.296,-72.043 c 0.684,0.129 1.332,0.227 1.943,0.293 l 69.311,41.86 c -0.494,12.1 -1.395,25.721 -2.31,35.441 z" style="fill:#006ad4;fill-opacity:1;fill-rule:nonzero;stroke:none" id="path66723" inkscape:connector-curvature="0"></path><path d="m 265.985,204.553 58.805,40.492 c -0.277,7.177 -0.442,14.752 -0.442,21.671 v 31.541 l 6.967,3.605 c 1.349,0.693 2.549,1.428 3.611,2.209 l -55.392,16.571 z" style="fill:#0074c4;fill-opacity:1;fill-rule:nonzero;stroke:none" id="path66725" inkscape:connector-curvature="0"></path><path d="M 275.002,18.103 330.063,7.942 c -1.627,2.031 -4.509,4.61 -8.463,7.896 -8.778,7.287 -10.014,9.56 -10.014,18.321 0,5.494 1.324,11.593 2.945,13.53 l -39.198,-17.39 c 0.413,-3.919 0.291,-7.696 -0.331,-12.196" style="fill:#0048b4;fill-opacity:1;fill-rule:nonzero;stroke:none" id="path66727" inkscape:connector-curvature="0"></path><path d="m 269.929,90.705 c 0.023,-25.03 1.203,-42.311 3.451,-50.589 0.986,-3.631 1.631,-6.767 1.953,-9.817 l 39.198,17.39 0.002,10e-4 c 2.007,2.422 2.731,11.836 2.278,29.702 -0.324,12.741 -0.146,23.156 0.583,31.545 l -49.049,18.882 c 1.015,-5.887 1.564,-18.575 1.584,-37.114" style="fill:#0063c3;fill-opacity:1;fill-rule:nonzero;stroke:none" id="path66729" inkscape:connector-curvature="0"></path><path d="m 279.534,320.642 76.52,42.56 c 1.991,10.588 2.733,16.879 2.254,20.54 l -100.329,20.655 z" style="fill:#b26a3a;fill-opacity:1;fill-rule:nonzero;stroke:none" id="path66731" inkscape:connector-curvature="0"></path><path d="m 285.761,534.752 c 3.289,3.288 5.821,27.515 3.739,35.796 -1.832,7.304 -7.611,10.03 -25.477,12.019 -10.828,1.206 -16.688,1.088 -21.694,-2.25 l 40.909,-58.526 c 0.177,6.062 1.242,11.683 2.523,12.961" style="fill:#ad0020;fill-opacity:1;fill-rule:nonzero;stroke:none" id="path66733" inkscape:connector-curvature="0"></path><path d="m 212.298,18.685 29.906,2.032 c 0.128,0.851 0.271,1.692 0.426,2.516 l -32.199,3.882 c 1.18,-3.057 1.777,-5.755 1.867,-8.43" style="fill:#0066c9;fill-opacity:1;fill-rule:nonzero;stroke:none" id="path66735" inkscape:connector-curvature="0"></path><path d="m 211.481,286.769 54.504,-82.216 13.549,116.089 z" style="fill:#0dc5cd;fill-opacity:1;fill-rule:nonzero;stroke:none" id="path66737" inkscape:connector-curvature="0"></path><path d="m 257.979,404.397 42.561,87.502 c -0.685,0.074 -1.356,0.115 -2.014,0.115 -1.355,0 -2.672,0.338 -3.932,0.965 l -106.206,-27.92 z" style="fill:#c32500;fill-opacity:1;fill-rule:nonzero;stroke:none" id="path66739" inkscape:connector-curvature="0"></path><path d="m 294.594,492.979 c -6.489,3.233 -11.373,14.22 -11.383,26.992 -0.001,0.609 0.008,1.216 0.027,1.82 l -40.909,58.526 c -2.508,-1.671 -4.803,-4.151 -7.4,-7.681 l -11.437,-26.438 c 0.192,-5.794 2.156,-12.662 5.79,-22.905 2.161,-6.095 3.293,-12.739 2.513,-14.771 -1.421,-3.706 -20.754,-17.058 -35.551,-25.302 l -7.856,-18.161 z" style="fill:#c10600;fill-opacity:1;fill-rule:nonzero;stroke:none" id="path66741" inkscape:connector-curvature="0"></path><path d="m 204.515,86.804 c -1.679,-42.452 -1.545,-44.485 3.586,-54.555 0.942,-1.844 1.713,-3.537 2.33,-5.134 l 32.199,-3.882 c 0.819,4.325 1.985,8.122 3.156,9.91 0.339,0.517 0.638,1.029 0.901,1.551 l -41.87,59.815 c -0.093,-2.405 -0.193,-4.973 -0.302,-7.705" style="fill:#0074ce;fill-opacity:1;fill-rule:nonzero;stroke:none" id="path66743" inkscape:connector-curvature="0"></path><path d="m 204.817,94.509 41.87,-59.815 c 1.888,3.75 1.824,7.993 0.077,18.128 -1.536,8.955 -1.754,26.239 -0.568,45.723 l 1.908,31.321 5.247,1.346 -48.244,-3.32 c 0.721,-4.653 0.471,-13.758 -0.29,-33.383" style="fill:#007fd1;fill-opacity:1;fill-rule:nonzero;stroke:none" id="path66745" inkscape:connector-curvature="0"></path><path d="m 257.979,404.397 -46.498,-117.628 68.053,33.873 z" style="fill:#93c353;fill-opacity:1;fill-rule:nonzero;stroke:none" id="path66747" inkscape:connector-curvature="0"></path><path d="m 196.244,483.22 c -3.386,-1.887 -6.53,-3.503 -9.171,-4.678 l 1.315,-13.483 z" style="fill:#c60800;fill-opacity:1;fill-rule:nonzero;stroke:none" id="path66749" inkscape:connector-curvature="0"></path><path d="m 231.376,567.493 c -5.57,-8.439 -8.126,-14.02 -7.884,-21.295 l 11.437,26.438 c -1.115,-1.515 -2.285,-3.222 -3.553,-5.143" style="fill:#c60800;fill-opacity:1;fill-rule:nonzero;stroke:none" id="path66751" inkscape:connector-curvature="0"></path><path d="m 257.979,404.397 -96.857,2.377 c -0.105,-1.107 -0.192,-2.147 -0.26,-3.105 -0.079,-1.131 -0.164,-2.313 -0.253,-3.527 l 50.872,-113.373 z" style="fill:#c8c010;fill-opacity:1;fill-rule:nonzero;stroke:none" id="path66753" inkscape:connector-curvature="0"></path><path d="m 195.599,136.616 5.328,-2.831 c 2.271,-1.216 3.572,-1.97 4.18,-5.893 l 48.244,3.32 2.951,0.758 c 0.518,0.134 1.016,0.251 1.501,0.358 l -61.847,58.901 z" style="fill:#0097de;fill-opacity:1;fill-rule:nonzero;stroke:none" id="path66755" inkscape:connector-curvature="0"></path><path d="m 196.013,199.888 -0.057,-8.659 61.847,-58.901 c 0.302,0.065 0.598,0.125 0.886,0.182 l 7.296,72.043 z" style="fill:#008dde;fill-opacity:1;fill-rule:nonzero;stroke:none" id="path66757" inkscape:connector-curvature="0"></path><path d="m 211.481,286.769 -15.273,-55.611 c -0.032,-5.803 -0.068,-11.793 -0.108,-17.886 l -0.087,-13.384 69.972,4.665 z" style="fill:#0097e2;fill-opacity:1;fill-rule:nonzero;stroke:none" id="path66759" inkscape:connector-curvature="0"></path><path d="m 188.388,465.059 -26.277,-49.661 c -0.41,-3.157 -0.747,-6.072 -0.989,-8.624 l 96.857,-2.377 z" style="fill:#ce5c00;fill-opacity:1;fill-rule:nonzero;stroke:none" id="path66761" inkscape:connector-curvature="0"></path><path d="m 196.398,284.069 c 0,-11.839 -0.067,-31.04 -0.19,-52.911 l 15.273,55.611 z" style="fill:#08e0e0;fill-opacity:1;fill-rule:nonzero;stroke:none" id="path66763" inkscape:connector-curvature="0"></path><path d="m 160.609,400.142 c -0.747,-10.212 -1.798,-22.841 -2.475,-29.612 -1.257,-12.623 -0.633,-15.097 7.441,-29.53 4.846,-8.665 13.689,-20.841 19.652,-27.085 6.81,-7.092 10.937,-13.675 11.105,-17.644 0.046,-1.09 0.067,-5.449 0.066,-12.202 l 15.083,2.7 z" style="fill:#7fdf17;fill-opacity:1;fill-rule:nonzero;stroke:none" id="path66765" inkscape:connector-curvature="0"></path><path d="m 187.073,478.542 c -0.853,-0.379 -1.656,-0.715 -2.394,-0.995 -5.598,-2.127 -10.705,-4.399 -11.355,-5.047 -0.58,-0.58 -1.493,-3.607 -2.569,-8.14 l 17.633,0.699 z" style="fill:#dc2b00;fill-opacity:1;fill-rule:nonzero;stroke:none" id="path66767" inkscape:connector-curvature="0"></path><path d="m 170.755,464.36 c -2.762,-11.649 -6.602,-33.255 -8.644,-48.962 l 26.277,49.661 z" style="fill:#df5e00;fill-opacity:1;fill-rule:nonzero;stroke:none" id="path66769" inkscape:connector-curvature="0"></path></g></g></g><desc>Created with Snap</desc><circle cx="336" cy="211" r="37" class="seat" style="" fill="#f0eeec"></circle><circle cx="335" cy="350" r="37" class="seat" style="" fill="#f0eeec"></circle><circle cx="260" cy="279" r="37" class="seat" style="" fill="#f0eeec"></circle><circle cx="405" cy="274" r="37" class="seat" style="" fill="#f0eeec"></circle></svg>